# xmcd
#
# Track frame offsets:
# 150
# 11270
# 21962
# 31915
# 44275
# 56552
# 67910
# 80047
# 91845
# 103625
#
# Disc length: 1513 seconds
#
#
# Revision: 2
# Processed by: cddbd v1.5.1PL2 Copyright (c) Steve Scherf et al.
# Submitted via: FreeRIP 2.945 
#
DISCID=7005e70a
DTITLE=Kitty Wells - The Best Of Kitty Wells
DYEAR=1995
DGENRE=Country
TTITLE0=Heartbreak  USA
TTITLE1=Searching
TTITLE2=Whose Shoulder Will You Cry On
TTITLE3=Release Me
TTITLE4=I'll Always Be Your Fraulein
TTITLE5=Left To Right
TTITLE6=On The Loney Side Of Town
TTITLE7=Amigo's Guitar
TTITLE8=I Gave My Wedding Dress Away
TTITLE9=I Heard The Jukebox Playing
EXTD=King Record Special
EXTT0=
EXTT1=
EXTT2=
EXTT3=
EXTT4=
EXTT5=
EXTT6=
EXTT7=
EXTT8=
EXTT9=
PLAYORDER=
